<?xml version="1.0"?>
<svg xmlns="http://www.w3.org/2000/svg" height="512px" viewBox="0 0 512 512" width="512px"><path d="m256 0c-139.480469 0-256 116.132812-256 256 0 139.480469 116.132812 256 256 256 67.46875 0 131.503906-26.878906 180.3125-75.6875s75.6875-112.84375 75.6875-180.3125c0-139.480469-116.132812-256-256-256zm159.097656 96.902344c85.648438 85.644531 89.054688 217.871094 10.261719 307.246094l-21.269531-21.273438c30.300781-35.273438 46.828125-79.777344 46.828125-126.875 0-52.136719-20.253907-101.105469-57.03125-137.886719l-21.214844 21.214844c60.757813 60.757813 64.125 157.492187 10.121094 222.25l-21.320313-21.316406c42.371094-52.957031 39.039063-130.667969-10.011718-179.71875l-21.214844 21.210937c37.339844 37.339844 40.617187 96.03125 9.847656 137.128906l-21.511719-21.511718c8.074219-12.167969 12.417969-26.433594 12.417969-41.371094 0-20.03125-7.800781-38.867188-21.96875-53.03125l-21.210938 21.210938c8.5 8.5 13.179688 19.800781 13.179688 31.820312 0 6.828125-1.515625 13.425781-4.378906 19.40625l-25.621094-25.621094v-141.8125l-85.089844 56.726563-78.058594-78.058594c42.824219-37.757813 95.484376-56.652344 148.148438-56.652344 57.246094 0 114.492188 22.304688 159.097656 66.914063zm-264.097656 204.097656h-30v-90h30zm30-96.972656 1.089844-.726563 58.910156 58.914063v85.757812l-60-40zm26.542969-17.695313 33.457031-22.304687v55.757812zm-110.640625 228.765625c-85.648438-85.644531-89.058594-217.871094-10.261719-307.246094l73.144531 73.148438h-68.785156v150h70.457031l109.542969 73.027344v-111.8125l133.148438 133.144531c-89.375 78.792969-221.601563 75.382813-307.246094-10.261719zm0 0" fill="#4d4d4d"/></svg>
